HIERARCHY
ROOT Hips
{
	OFFSET -0.826874 104.329185 -13.986590
	CHANNELS 6 Xposition Yposition Zposition Xrotation Yrotation Zrotation
	JOINT Chest
	{
		OFFSET 0.754016 13.478645 1.977823
		CHANNELS 3 Xrotation Yrotation Zrotation
		JOINT Chest2
		{
			OFFSET -0.019843 21.055878 3.964331
			CHANNELS 3 Xrotation Yrotation Zrotation
			JOINT Chest3
			{
				OFFSET -0.305592 14.924011 0.012683
				CHANNELS 3 Xrotation Yrotation Zrotation
				JOINT Neck
				{
					OFFSET 0.758568 17.102127 2.357551
					CHANNELS 3 Xrotation Yrotation Zrotation
					JOINT Head
					{
						OFFSET -0.223234 10.306244 1.886546
						CHANNELS 3 Xrotation Yrotation Zrotation
						End Site
						{
							OFFSET -0.219016 10.319229 1.814756
						}
					}
				}
				JOINT LeftCollar
				{
					OFFSET 4.937447 12.569916 4.407161
					CHANNELS 3 Xrotation Yrotation Zrotation
					JOINT LeftUpArm
					{
						OFFSET 14.315561 -5.594818 -8.500711
						CHANNELS 3 Xrotation Yrotation Zrotation
						JOINT LeftLowArm
						{
							OFFSET 2.897924 -33.619476 1.030190
							CHANNELS 3 Xrotation Yrotation Zrotation
							JOINT LeftHand
							{
								OFFSET -3.658434 -27.859299 10.555696
								CHANNELS 3 Xrotation Yrotation Zrotation
								End Site
								{
									OFFSET -0.799572 -6.088814 2.307010
								}
							}
						}
					}
				}
				JOINT RightCollar
				{
					OFFSET -3.458451 12.872681 4.913425
					CHANNELS 3 Xrotation Yrotation Zrotation
					JOINT RightUpArm
					{
						OFFSET -14.891069 -5.360458 -7.616936
						CHANNELS 3 Xrotation Yrotation Zrotation
						JOINT RightLowArm
						{
							OFFSET -5.123041 -33.368118 -0.239133
							CHANNELS 3 Xrotation Yrotation Zrotation
							JOINT RightHand
							{
								OFFSET 3.013620 -27.599983 11.406731
								CHANNELS 3 Xrotation Yrotation Zrotation
								End Site
								{
									OFFSET 0.658659 -6.032249 2.493062
								}
							}
						}
					}
				}
			}
		}
	}
	JOINT LeftUpLeg
	{
		OFFSET 10.005481 -0.540756 -0.130693
		CHANNELS 3 Xrotation Yrotation Zrotation
		JOINT LeftLowLeg
		{
			OFFSET 2.532495 -46.716473 -7.426150
			CHANNELS 3 Xrotation Yrotation Zrotation
			JOINT LeftFoot
			{
				OFFSET -1.069643 -42.236084 -14.681198
				CHANNELS 3 Xrotation Yrotation Zrotation
				JOINT LeftToe
				{
					OFFSET 3.846535 -17.021645 15.969584
					CHANNELS 3 Xrotation Yrotation Zrotation
					End Site
					{
						OFFSET 5.107078 -2.733674 22.934771
					}
				}
			}
		}
	}
	JOINT RightUpLeg
	{
		OFFSET -10.005495 0.540558 0.130665
		CHANNELS 3 Xrotation Yrotation Zrotation
		JOINT RightLowLeg
		{
			OFFSET -2.083458 -47.324982 -0.127742
			CHANNELS 3 Xrotation Yrotation Zrotation
			JOINT RightFoot
			{
				OFFSET -0.797980 -41.936726 -15.532318
				CHANNELS 3 Xrotation Yrotation Zrotation
				JOINT RightToe
				{
					OFFSET 1.109693 -18.128590 15.155176
					CHANNELS 3 Xrotation Yrotation Zrotation
					End Site
					{
						OFFSET -0.802202 -4.500372 23.209034
					}
				}
			}
		}
	}
}
MOTION
Frames: 10
Frame Time: 0.033333
-0.161348 106.130417 -1.111723 -6.630980 -0.747103 3.092423 -8.041770 -0.982428 -3.418757 5.942189 0.918602 -0.940160 -7.942172 -2.352533 3.404881 6.948317 6.650992 -3.071817 -0.000001 -0.000000 -0.000000 1.040633 4.225102 23.199706 -8.921534 5.244706 59.929371 18.296117 17.290754 6.283317 -0.000001 -0.000005 0.000001 0.172516 -0.574500 -26.116550 -12.207796 -0.653954 -56.940108 21.830077 -8.856105 -12.087011 -0.000001 0.000004 0.000001 -0.493863 -2.181336 0.465274 -3.000227 0.097701 1.320475 3.057939 -10.082556 -2.488558 0.000000 -0.000001 -0.000000 8.421588 1.369982 -7.678700 -12.992586 1.720504 2.296065 0.649550 0.042362 -7.716142 0.000000 0.000000 -0.000001 
73.883499 114.587471 -1.122943 -24.417496 54.460315 16.884711 -7.728871 1.791324 -1.133380 -9.155254 -3.356585 2.858557 -4.282799 -13.341312 -2.212035 -19.124808 -3.162455 2.103274 -0.000002 -0.000001 0.000003 -16.744229 15.511788 42.461691 1.021021 23.366579 55.107322 10.200379 25.073276 25.154086 0.000001 0.000002 -0.000002 -16.319516 -7.720755 -36.899837 -5.776617 -25.573417 -66.976336 20.749527 -17.839904 -3.801277 0.000002 0.000003 0.000002 13.053849 1.966025 6.566109 -4.873938 0.383055 1.583038 31.032442 -26.288164 -19.610271 -0.000007 -0.000002 0.000003 -60.727758 10.991404 -10.582388 99.376309 41.102408 34.855910 21.348962 -32.365278 -6.849762 -0.000001 0.000001 -0.000001 
73.980011 114.540092 -1.164274 -24.453450 54.948527 16.989646 -7.640026 1.702618 -0.867570 -8.206403 -3.006387 2.494487 -5.341697 -13.690222 -2.342291 -20.210583 -3.365765 2.277888 -0.000006 0.000000 0.000001 -16.501254 15.907186 40.802242 2.327248 24.730175 53.314746 12.236852 25.370468 24.923702 0.000004 -0.000003 0.000000 -16.187494 -8.228626 -35.338050 -3.928334 -28.579868 -64.268795 18.881768 -17.947717 -4.972924 -0.000003 0.000004 0.000001 13.046866 1.907184 6.801268 -4.215136 0.633302 1.271224 29.129790 -25.693917 -19.291811 -0.000003 -0.000000 -0.000000 -60.782236 11.124661 -10.733228 99.324167 40.924465 34.867528 22.078880 -32.241539 -6.608629 -0.000002 0.000001 -0.000005 
74.082260 114.455780 -1.202032 -23.369499 55.232492 15.713407 -7.948532 1.726940 -0.700231 -8.321140 -2.772198 2.179042 -5.386323 -13.329762 -1.969448 -21.544015 -3.594579 2.568077 -0.000002 0.000000 0.000002 -16.642085 16.125703 39.474211 2.909083 26.387517 51.605586 11.418439 25.579916 24.149100 -0.000002 -0.000006 0.000002 -16.588233 -9.086454 -34.085280 -2.229158 -32.230594 -61.272514 17.173759 -18.399351 -5.401252 -0.000004 0.000003 -0.000002 12.392511 1.961221 7.008075 -3.102434 0.756341 0.812917 25.745235 -24.599179 -18.732340 0.000000 -0.000002 0.000001 -61.141675 10.953212 -10.631428 98.934792 40.855272 35.123800 21.669520 -32.160506 -6.732442 0.000001 -0.000002 0.000002 
74.207039 114.327583 -1.260946 -22.692376 55.737977 15.576236 -7.541472 1.850949 -1.089801 -8.214307 -3.159132 2.623536 -6.031819 -12.909612 -2.441087 -21.831503 -4.722668 3.172586 -0.000002 0.000001 0.000004 -16.506677 15.611174 38.771685 2.608416 26.631975 49.911915 7.495084 25.260971 25.539047 -0.000002 -0.000005 0.000000 -16.778109 -9.140753 -33.168853 -0.901594 -35.294453 -59.039984 16.487346 -19.013023 -5.693980 -0.000003 0.000003 0.000003 11.845646 1.991748 6.447135 -2.149716 0.632836 0.664409 22.420439 -23.548735 -18.249055 0.000000 0.000000 0.000001 -61.447025 11.097566 -10.887082 99.497831 40.283609 34.021206 21.743245 -31.650127 -6.460344 -0.000002 0.000001 -0.000003 
74.308762 114.087509 -1.307992 -21.813580 55.238100 14.286482 -6.355381 1.430209 -0.349350 -9.193581 -2.416484 1.732527 -4.968977 -12.387783 -1.195041 -23.477751 -5.334890 3.486106 0.000001 -0.000001 0.000002 -15.917727 15.927318 37.467570 3.866918 26.470752 47.078762 4.990042 24.921772 28.631216 -0.000000 -0.000006 0.000003 -16.187039 -9.569970 -31.367511 2.930104 -38.145742 -53.998103 15.426173 -18.955998 -6.902666 0.000001 0.000004 0.000002 11.930539 1.715007 6.541807 -1.490475 0.297733 0.742960 18.665440 -21.745195 -17.200957 -0.000003 -0.000003 0.000001 -61.411310 11.006496 -10.398103 98.608548 40.425967 34.804192 22.601738 -32.596238 -6.566896 -0.000002 -0.000000 -0.000001 
74.361710 113.712784 -1.352552 -20.315768 55.937187 12.659145 -5.513650 1.296167 -0.227093 -8.693964 -2.614451 2.003458 -5.330642 -10.772783 -0.921184 -24.428378 -5.949422 3.970305 -0.000001 -0.000002 -0.000000 -15.068642 16.071369 35.521191 5.258171 26.651096 42.920673 3.380626 24.679364 31.836106 -0.000003 0.000001 -0.000000 -15.418841 -9.968498 -28.968239 6.815179 -40.146568 -47.388197 14.233688 -18.640184 -8.024272 -0.000002 0.000006 0.000005 10.496566 1.655734 6.108806 -0.089409 0.118771 1.600596 13.092428 -21.751171 -17.026837 0.000000 -0.000000 -0.000000 -61.407287 10.925162 -10.494529 96.844815 38.944789 34.595274 22.368473 -32.816846 -6.837610 0.000001 0.000000 -0.000001 
74.383675 113.285217 -1.391566 -18.700590 56.509918 11.309533 -5.098483 1.390625 -0.786269 -8.508150 -2.868420 2.453498 -5.084501 -9.784719 -0.768442 -25.785340 -6.549743 4.473754 -0.000003 0.000001 0.000003 -14.669308 16.219167 33.356977 6.247041 27.269242 39.806397 1.883829 25.432728 34.520961 -0.000003 -0.000004 0.000002 -14.867384 -10.246703 -26.736087 9.858972 -41.310941 -41.983793 13.735756 -19.336196 -9.147725 -0.000000 0.000003 0.000003 8.810302 1.374683 5.853587 1.558651 0.470389 1.655163 8.541744 -21.806641 -16.733893 0.000001 -0.000000 -0.000002 -61.474708 11.003702 -10.689484 95.098978 37.304625 34.210877 21.963286 -34.008553 -7.519161 -0.000003 -0.000002 0.000000 
74.323273 112.718994 -1.411253 -17.105241 56.821016 9.770194 -3.616215 1.154078 -0.498655 -9.185358 -2.477997 1.964337 -4.684472 -8.190785 -0.342848 -26.340857 -7.296315 4.875988 0.000002 -0.000001 -0.000001 -14.315660 16.480183 31.827264 7.783364 28.826902 35.878372 -0.378116 26.266483 35.844034 -0.000001 -0.000003 -0.000000 -14.451693 -10.623098 -24.564891 12.920777 -41.898921 -35.005399 11.697278 -20.775600 -11.049837 0.000001 0.000001 -0.000003 6.209802 0.969135 5.066279 4.556458 -0.262990 1.415152 3.176908 -19.505980 -15.007278 -0.000001 -0.000003 -0.000001 -60.923238 10.906105 -10.485759 90.821777 35.852486 35.296782 22.248115 -36.182640 -8.177758 0.000003 0.000000 -0.000003 
74.208344 112.001984 -1.447463 -14.115687 58.703727 8.734494 -2.204942 0.990109 -0.602015 -9.547407 -2.366472 1.763932 -4.822496 -6.844996 -0.482845 -26.725948 -6.658984 4.839281 -0.000002 0.000000 0.000001 -13.605205 16.609756 29.640303 8.989036 28.806104 31.203296 -1.958757 25.507732 35.187509 0.000001 -0.000001 -0.000001 -13.443792 -9.919073 -22.322855 14.356477 -40.046021 -27.668941 9.946899 -21.557221 -14.106753 -0.000000 0.000002 -0.000000 1.734672 0.775758 4.030520 9.248931 -0.849792 0.856856 -1.115211 -17.351565 -13.262746 -0.000000 -0.000001 0.000001 -60.800261 11.608351 -11.566373 84.080271 34.605270 39.001285 21.596730 -40.158254 -9.952637 -0.000001 -0.000001 -0.000002 
